<?xml version="1.0" encoding="utf-8"?>
<!-- Generator: Adobe Illustrator 26.0.0, SVG Export Plug-In . SVG Version: 6.00 Build 0)  -->
<svg version="1.1" id="Layer_1" xmlns="http://www.w3.org/2000/svg" xmlns:xlink="http://www.w3.org/1999/xlink" x="0px" y="0px"
	 viewBox="0 0 640.3 263.8" style="enable-background:new 0 0 640.3 263.8;" xml:space="preserve">
<style type="text/css">
	.st0{fill:#221F1F;}
</style>
<path class="st0" d="M279,209.9c-15-10.6-33.3-15.2-49.9-14.6c-16.8,0.7-24.3,13.2-24.3,13.2c-7.6-13.2-22.6-21.3-45.7-21.1
	c-37.4,0.4-74.5,17.7-103.9,17.7c-28.2,0-48.8-17.7-48.1-49.2C8.1,100.8,54.7,51,89.6,28.6c20-12.9,36.8-16.7,47.8-15.5
	c8,0.9,17.6,10.1,11.6,23.8c-8.9,20-21.2,18.3-20.8,8.8c0.3-6.2,4.4-10.1,7.5-12.2c2-1.4,5.5-1.8,7.3-1.8c1.8-1.5,3.1-12.4-11.3-8.8
	c-14.4,3.6-31.6,17.7-48.1,35.9c-16.5,18.2-42.1,52.6-48.4,88.8c-2.9,16.8-1,47.3,38.7,47c33.7-0.3,83.4-22.5,129-22.1
	c17.7,0.2,33.1,4.9,45.2,12.3C259.8,192.1,274,202.7,279,209.9 M289.8,109.8h6.9c0,0-34.6,50-54.1,47.7c-10.9-1.3-7.7-14.7-7.7-14.7
	s-15.4,18-29.4,14.4c-12.8-3.3-4.5-24.5-4.5-24.5c-1.4,0.6-29.1,31.8-48.5,24.3c-20.3-7.8-9.8-33.9-5.9-41.7
	c3.3-6.6,6.9-13.1,6.9-13.1s-3.1,0.9-5,1.3c-1.9,0.4-4.9,1-4.9,1s-9.6,15.6-15.5,23.4c-5.9,7.8-30.8,34.6-45.5,29.3
	c-14.7-5.3-11.1-25.9-2.8-42.2c13.4-26.5,45.2-59.1,64.3-54.2c19.3,4.9,3.3,36.3,3.3,36.3s3.8,0.5,13.1-5.8
	c13.3-9.1,30.8-33.4,49.7-30.6c8.9,1.3,17.2,10.5,5.9,27.8c-3.6,5.6-9.7,10.6-14.4,5.6c-2.9-3-0.4-8.6,2.7-12.5
	c4.3-5.4,10.2-4.7,10.2-4.7s3.1-7.2-4.8-7.1c-6.5,0.1-22.8,15.2-32,30.4c-8.5,14-21.3,37.7-8.4,42.9c11.8,4.8,34.2-21.9,44.6-35.9
	c10.4-14,34-45.6,53.9-46.9c6.8-0.4,10.9,5.8,10.9,5.8l2.3-3.6h19.8c0,0-37.4,62.5-40.3,67.2c-2.3,3.7-5.3,12,3.1,7.4
	C272.2,132.5,289.8,109.8,289.8,109.8 M135.8,103.5c-0.3-0.1-5.3-1.6-10.2-4.7c-4.9-3.1-7.1-7.7-7.3-8.1c-0.2-0.3-0.4-0.1-0.6,0.2
	c-0.2,0.3-1.2,1.6-8.3,12c-7.1,10.4-17.6,31.7-7.7,35.3c6.3,2.3,16.9-8.7,22.6-16c5.3-6.8,11.6-17.2,11.9-17.8
	C136.4,103.8,136.2,103.6,135.8,103.5 M143.7,70.3c-5.2-3.9-18.4,5.3-18.5,14.7c-0.1,9.6,12,12.4,13.5,12.5c0,0,1.4,0.4,1.9-0.8
	c0.3-0.7,2-3.7,3.8-8.5C146.2,83.4,148.5,74,143.7,70.3 M244.8,122.3c8-11,30.1-49.5,30.1-49.5s-0.4-2.7-2.9-2.8
	c-3.1-0.1-8.1,0.9-18.3,13.6c-10.2,12.7-18,22.8-23.7,33.3c-6.3,11.5-9,19.6-5.4,21.8c1,0.6,2.6,0.7,3.8,0.4
	c2.4-0.6,5.4-2.9,9.7-7.8C240,128.9,242.2,125.9,244.8,122.3 M612.2,31.7c-13.9,9-33.2,17.1-51.8,15.3c-4.7,4.9-9.7,10.5-14.8,16.6
	C577.8,70,606,50,620.9,33.1c9.3-10.6,14-20,14-20S626,22.9,612.2,31.7 M557,177.9c-2.7,4.3-5.7,12.4,3.1,7.3
	c10.7-6.2,26-29.4,26-29.4h6.9c0,0-9.1,14.4-21,27.6c-10.9,12.1-24.1,23-33.5,21.9c-10.9-1.3-7.5-15.6-7.5-15.6
	s-15.7,16.6-26.4,15.4c-14.6-1.6-10.1-19.7-10.1-19.7s-16.5,20.3-27.7,19.7c-17.6-1-13.2-22.5-8.3-37.6c2.6-8.1,5.1-14.4,5.1-14.4
	s-1.8,0.5-5.5,1c-2,0.3-5.5,0.5-5.5,0.5s-7.3,13-13.2,20.8c-5.9,7.8-30.8,34.6-45.5,29.3c-13.6-5-9.1-25.8-1.2-42.3
	c11.5-24.1,44-58.7,62.7-54.2c19.4,4.7,0.5,40.1,0.5,40.1s0,0.1,0.2,0.2c0.4,0.2,1.4,0.2,3.7-0.2c3.7-0.7,7.1-2.1,7.1-2.1
	s19.5-40.8,41-67.6c21.5-26.7,64.5-72.7,81.4-61.6c4.1,2.7,2.2,12.2-3.3,23.6c-2.5,0.8-5,1.5-7.6,2c3.7-6.7,6.2-12.4,6.9-16.4
	c2.5-13.8-29.7,15.3-52.7,46.6c-23,31.3-36.8,59.7-36.8,59.7s4.6-2.6,11.9-8.5c7.6-6.1,18-15.6,29.3-27.3
	c7.6-7.8,16.5-17.7,24.9-28.7c2.5-0.1,4.9-0.4,7.3-0.8c-9.3,12.6-19.1,24-27.5,32.5c-9.2,9.3-19.1,19.3-27.8,26.6
	c-13.7,11.6-24.4,18.1-24.4,18.1s-20.2,40.6-9.2,43.2c6.4,1.5,19.2-18.1,19.2-18.1s16.6-25.3,26.6-36.7
	c13.6-15.5,25.4-24.5,37.1-24.7c6.8-0.1,10.9,7.2,10.9,7.2l3.2-5H597C597,110.4,560,173.1,557,177.9 M445.6,153.1
	c-0.3-0.1-4.6-2.1-9.1-5.8c-4.4-3.7-6.7-8-6.9-8.3c-0.2-0.3-0.4-0.1-0.6,0.2c-0.2,0.3-1,1-8.1,11.4c-7.1,10.4-17.9,31.8-8.1,35.5
	c6.3,2.3,16.8-8.7,22.5-16c5.3-6.8,10.3-15.4,10.5-16C446.2,153.4,446,153.3,445.6,153.1 M455.6,135.6c1.8-4.8,4.1-14.2-0.7-17.8
	c-5.2-3.9-18.5,5.3-18.5,14.7c-0.1,9.6,9.3,14,11.6,14.6c1.3,0.3,1.7,0.3,2.4-0.7C450.8,145.6,453.8,140.4,455.6,135.6 M569.4,122.4
	c0.4-0.7,0.6-1.3,0.6-1.3s-0.4-2.7-2.9-2.8c-3.1-0.1-7.3,0.4-18.2,12.6c-10.9,12.1-17.5,22.6-23.3,33.1c-6.3,11.5-8.8,20-5.2,22.2
	c1,0.6,2.6,0.7,3.8,0.4c2.5-0.6,5.2-2.9,9.4-7.7c2-2.3,4.2-5.5,6.8-9.1C547.6,159.7,565.8,128.6,569.4,122.4 M612.2,31.7
	c-13.9,9-33.2,17.1-51.8,15.3c-4.7,4.9-9.7,10.5-14.8,16.6C577.8,70,606,50,620.9,33.1c9.3-10.6,14-20,14-20S626,22.9,612.2,31.7
	 M521.8,55.1c-15.2-7.8-26.3-17.3-37.9-23.3c-11.1-5.7-18.2-8-27.1-6.8c-1.5,0.2-3.7,0.9-3.7,0.9s4.6,15.7-13.7,42.1
	c-18.5,26.7-35.3,26.6-40.1,19.2c-5-7.7,1.4-23.6,12.2-37.6c11.3-14.7,31.1-26.9,31.1-26.9s-6.3-3.9-21.9,5
	c-15.1,8.6-41.3,29-65.4,63.5c-24.2,34.4-29,53.4-32.5,68.3c-3.5,14.9-0.3,30.9,16.3,30.9c16.6,0,35.8-25.2,41.2-34
	c10.1-16.3,16.7-41.4,2.9-38c-6.8,1.7-12.3,9.2-15.7,16.4c-3.5,7.4-5,14.5-5,14.5s-5.7,2-13.4,7.8c-7.7,5.8-12.7,11.2-12.7,11.2
	s0-11.9,9.5-31.2c9.5-19.3,27-28.1,36.8-29c8.9-0.7,20.5,6.8,10.7,34.7c-9.8,27.9-38.8,61.8-69.2,62.2c-28.1,0.4-46.5-35.4-7.4-98
	c43.2-69.2,94-90.4,110.5-92.8c16.5-2.4,21.8,4.9,21.8,4.9s13.8-6.4,31.3-5.2c20.1,1.4,35.7,15.6,56.2,25.6
	C531.5,44.7,526.4,50,521.8,55.1 M446.8,27.9c0,0-11.8,4.7-25.5,19.8c-13.7,15.1-21.6,32.1-15.7,36.6c2.3,1.7,7.5,2,17-6.5
	c7.4-6.7,14.9-15.4,20.1-27.8C448.8,35,446.8,28.1,446.8,27.9 M334,62.7h-18.9l-10.6,17.2h18.8L334,62.7z M583.8,191.7
	c1.1,0.6,2,1.5,2.7,2.6c0.6,1.1,1,2.3,1,3.6c0,1.3-0.3,2.5-1,3.6c-0.6,1.1-1.5,2-2.7,2.6c-1.1,0.6-2.4,1-3.8,1c-1.4,0-2.6-0.3-3.8-1
	c-1.1-0.6-2-1.5-2.7-2.6c-0.6-1.1-1-2.3-1-3.6c0-1.3,0.3-2.5,1-3.6c0.6-1.1,1.5-2,2.7-2.6c1.1-0.6,2.4-1,3.8-1
	C581.4,190.7,582.7,191.1,583.8,191.7 M583.1,202.9c0.9-0.5,1.6-1.2,2.1-2.1c0.5-0.9,0.7-1.9,0.7-3c0-1.1-0.2-2.1-0.7-2.9
	c-0.5-0.9-1.2-1.6-2.1-2.1c-0.9-0.5-1.9-0.7-3-0.7c-1.1,0-2.1,0.2-3,0.7c-0.9,0.5-1.6,1.2-2.1,2.1c-0.5,0.9-0.7,1.9-0.7,2.9
	c0,1.1,0.2,2.1,0.7,3c0.5,0.9,1.2,1.6,2.1,2.1c0.9,0.5,1.9,0.7,3,0.7C581.2,203.7,582.2,203.4,583.1,202.9 M582.8,197.8
	c-0.2,0.3-0.5,0.6-0.9,0.8l1.7,2.5h-1.9l-1.5-2.4h-1.3v2.4h-1.7v-6.5h3.8c0.6,0,1.1,0.2,1.5,0.6c0.4,0.4,0.6,0.9,0.6,1.5
	C583.1,197.1,583,197.4,582.8,197.8 M578.9,197.3h1.8c0.2,0,0.4-0.1,0.5-0.2c0.1-0.1,0.2-0.3,0.2-0.5c0-0.2-0.1-0.3-0.2-0.5
	c-0.1-0.1-0.3-0.2-0.5-0.2h-1.8V197.3z M167.9,232l-17.3,19.6h17.9v5.8H142v-5.3l17.3-19.7h-16.5v-5.8h25V232z M186.3,251.5h18.2
	l0.9,5.8h-25.7v-30.7h25.3l-0.9,5.8h-17.7v6.1h12.2v5.9h-12.2V251.5z M237.2,257.3l-7.8-11.8h-6.9v11.8h-6.6v-30.7H233
	c2,0,3.7,0.4,5.1,1.3c1.5,0.8,2.6,2,3.4,3.4c0.8,1.4,1.2,3,1.2,4.8c0,2.1-0.5,3.9-1.6,5.5c-1.1,1.6-2.6,2.7-4.5,3.4l8.4,12.3H237.2z
	 M222.5,232.6v7.1h9.3c1.3,0,2.3-0.3,3-1s1.1-1.5,1.1-2.6c0-1.1-0.4-1.9-1.1-2.6c-0.7-0.6-1.7-1-3-1H222.5z M260.7,255.9
	c-2.5-1.3-4.4-3.2-5.8-5.6c-1.4-2.4-2.1-5.2-2.1-8.2c0-3.1,0.7-5.8,2.1-8.2c1.4-2.4,3.4-4.3,5.8-5.6c2.5-1.3,5.3-2,8.5-2
	s6,0.7,8.5,2c2.5,1.3,4.4,3.2,5.8,5.6c1.4,2.4,2.1,5.2,2.1,8.2c0,3.1-0.7,5.8-2.1,8.2c-1.4,2.4-3.4,4.3-5.8,5.6
	c-2.5,1.3-5.3,2-8.5,2S263.2,257.2,260.7,255.9z M274.1,250.6c1.4-0.8,2.6-2,3.4-3.5s1.2-3.2,1.2-5.1c0-1.9-0.4-3.6-1.2-5.1
	c-0.8-1.5-1.9-2.7-3.4-3.5c-1.4-0.8-3.1-1.3-4.9-1.3c-1.8,0-3.4,0.4-4.9,1.3c-1.4,0.8-2.6,2-3.4,3.5c-0.8,1.5-1.2,3.2-1.2,5.1
	c0,1.9,0.4,3.6,1.2,5.1c0.8,1.5,1.9,2.7,3.4,3.5c1.4,0.8,3.1,1.3,4.9,1.3C271,251.8,272.6,251.4,274.1,250.6z M319.4,256.5
	c-2.6-0.8-4.7-2-6.2-3.5l4.1-5c2.9,2.6,6.3,3.8,10.3,3.8c1.8,0,3.3-0.3,4.4-1s1.7-1.5,1.7-2.5c0-0.7-0.3-1.4-1-1.9
	c-0.7-0.5-1.8-0.9-3.3-1.2l-6.5-1.2c-2.8-0.5-5-1.5-6.4-3c-1.4-1.4-2.1-3.2-2.1-5.3c0-1.9,0.6-3.6,1.7-5.1c1.1-1.4,2.7-2.5,4.7-3.3
	c2-0.8,4.3-1.2,6.8-1.2c2.4,0,4.7,0.3,6.9,1c2.2,0.7,4.1,1.7,5.7,3.2l-3.8,4.9c-2.7-2.2-5.7-3.3-8.9-3.3c-1.7,0-3.2,0.3-4.3,0.9
	c-1.2,0.6-1.7,1.4-1.7,2.3c0,0.6,0.3,1.1,0.9,1.6c0.6,0.5,1.7,0.8,3.3,1.2l6.1,1.1c3,0.6,5.3,1.6,6.8,3.2c1.5,1.6,2.3,3.5,2.3,5.6
	c0,2-0.5,3.7-1.6,5.2c-1.1,1.5-2.5,2.7-4.5,3.5c-1.9,0.8-4.1,1.2-6.7,1.2C324.8,257.8,322,257.3,319.4,256.5z M357.8,256.4
	c-2.1-1-3.7-2.4-4.8-4.2c-1.1-1.8-1.7-4-1.7-6.5v-19.1h6.7V245c0,2.2,0.6,3.9,1.8,5.1c1.2,1.2,3,1.8,5.2,1.8c2.3,0,4-0.6,5.2-1.8
	c1.2-1.2,1.8-2.9,1.8-5.1v-18.3h6.7v19.1c0,2.5-0.6,4.7-1.7,6.5c-1.1,1.8-2.7,3.2-4.8,4.2c-2.1,1-4.5,1.5-7.3,1.5
	S359.9,257.4,357.8,256.4z M420.4,254.3c-1.5,1.1-3.4,2-5.6,2.6c-2.2,0.7-4.6,1-7.2,1c-3.4,0-6.5-0.7-9.2-2
	c-2.7-1.3-4.8-3.2-6.3-5.6c-1.5-2.4-2.3-5.1-2.3-8.2c0-3.1,0.7-5.8,2.2-8.2c1.5-2.4,3.5-4.3,6.2-5.7c2.6-1.4,5.5-2,8.8-2
	c2.6,0,5.1,0.4,7.2,1.2c2.2,0.8,4,1.8,5.5,3.2l-3.8,4.9c-2.5-2.1-5.4-3.2-8.9-3.2c-1.9,0-3.6,0.4-5.2,1.3c-1.6,0.8-2.8,2-3.7,3.5
	c-0.9,1.5-1.4,3.2-1.4,5.1c0,1.9,0.5,3.6,1.4,5.1s2.2,2.7,3.9,3.5c1.7,0.8,3.6,1.3,5.7,1.3c1.2,0,2.2-0.1,3.2-0.3
	c1-0.2,1.9-0.5,2.9-0.9v-5.5h-8.3v-5.8h14.9V254.3z M461.1,257.3h-7l-2.6-6.8h-13.5l-2.6,6.8h-7l12.2-30.7h8.2L461.1,257.3z
	 M444.8,232.6l-4.6,12.1h9.1L444.8,232.6z M492.1,257.3l-7.8-11.8h-6.9v11.8h-6.6v-30.7h17.1c2,0,3.7,0.4,5.1,1.3
	c1.5,0.8,2.6,2,3.4,3.4c0.8,1.4,1.2,3,1.2,4.8c0,2.1-0.5,3.9-1.6,5.5c-1.1,1.6-2.6,2.7-4.5,3.4l8.4,12.3H492.1z M477.3,232.6v7.1
	h9.3c1.3,0,2.3-0.3,3-1c0.7-0.6,1.1-1.5,1.1-2.6c0-1.1-0.4-1.9-1.1-2.6c-0.7-0.6-1.7-1-3-1H477.3z"/>
</svg>
